{
  "accessors": [
    {
      "name": "Cube.001_Cube.004-Mesh_0_positions",
      "componentType": 5126,
      "count": 174,
      "min": [
        0.5363739728927612,
        -0.16193300485610962,
        -1.014464020729065
      ],
      "max": [
        0.763418972492218,
        -0.03275400027632713,
        -0.7380650043487549
      ],
      "type": "VEC3",
      "bufferView": 0,
      "byteOffset": 0
    },
    {
      "name": "Cube.001_Cube.004-Mesh_0_normals",
      "componentType": 5126,
      "count": 174,
      "min": [
        -0.8379108905792236,
        -1,
        -0.8379108905792236
      ],
      "max": [
        0.8379108905792236,
        1,
        0.8379108905792236
      ],
      "type": "VEC3",
      "bufferView": 1,
      "byteOffset": 0
    },
    {
      "name": "Cube.001_Cube.004-Mesh_0_indices",
      "componentType": 5123,
      "count": 432,
      "min": [
        0
      ],
      "max": [
        173
      ],
      "type": "SCALAR",
      "bufferView": 2,
      "byteOffset": 0
    },
    {
      "name": "Cube.001_Cube.004-Mesh_1_positions",
      "componentType": 5126,
      "count": 96,
      "min": [
        0.5850610136985779,
        -0.16193300485610962,
        -1.014464020729065
      ],
      "max": [
        0.763418972492218,
        -0.03275400027632713,
        -0.8128160238265991
      ],
      "type": "VEC3",
      "bufferView": 0,
      "byteOffset": 2088
    },
    {
      "name": "Cube.001_Cube.004-Mesh_1_normals",
      "componentType": 5126,
      "count": 96,
      "min": [
        -0.8379108905792236,
        -1,
        -0.5458070635795593
      ],
      "max": [
        0.8379108905792236,
        1,
        0.5458070635795593
      ],
      "type": "VEC3",
      "bufferView": 1,
      "byteOffset": 2088
    },
    {
      "name": "Cube.001_Cube.004-Mesh_1_indices",
      "componentType": 5123,
      "count": 192,
      "min": [
        0
      ],
      "max": [
        95
      ],
      "type": "SCALAR",
      "bufferView": 2,
      "byteOffset": 864
    },
    {
      "name": "Cube_Cube.003-Mesh_0_positions",
      "componentType": 5126,
      "count": 184,
      "min": [
        0.3513689935207367,
        0.5525720119476318,
        -0.7554479837417603
      ],
      "max": [
        0.7040259838104248,
        0.7018669843673706,
        -0.4176830053329468
      ],
      "type": "VEC3",
      "bufferView": 0,
      "byteOffset": 3240
    },
    {
      "name": "Cube_Cube.003-Mesh_0_normals",
      "componentType": 5126,
      "count": 184,
      "min": [
        -0.9065566658973694,
        -0.7997990250587463,
        -0.8269644975662231
      ],
      "max": [
        0.8033145666122437,
        0.7997990250587463,
        0.8269644975662231
      ],
      "type": "VEC3",
      "bufferView": 1,
      "byteOffset": 3240
    },
    {
      "name": "Cube_Cube.003-Mesh_0_indices",
      "componentType": 5123,
      "count": 276,
      "min": [
        0
      ],
      "max": [
        183
      ],
      "type": "SCALAR",
      "bufferView": 2,
      "byteOffset": 1248
    },
    {
      "name": "Icosphere.004_Icosphere.005-Mesh_0_positions",
      "componentType": 5126,
      "count": 122,
      "min": [
        -0.9189850091934204,
        0.35594499111175537,
        -1.057723045349121
      ],
      "max": [
        -0.565887987613678,
        0.8142340183258057,
        -0.7410240173339844
      ],
      "type": "VEC3",
      "bufferView": 0,
      "byteOffset": 5448
    },
    {
      "name": "Icosphere.004_Icosphere.005-Mesh_0_normals",
      "componentType": 5126,
      "count": 122,
      "min": [
        -0.8828842043876648,
        -0.9739044904708862,
        -0.9875919818878174
      ],
      "max": [
        0.9698126912117004,
        0.9101824760437012,
        0.9875919818878174
      ],
      "type": "VEC3",
      "bufferView": 1,
      "byteOffset": 5448
    },
    {
      "name": "Icosphere.004_Icosphere.005-Mesh_0_indices",
      "componentType": 5123,
      "count": 174,
      "min": [
        0
      ],
      "max": [
        121
      ],
      "type": "SCALAR",
      "bufferView": 2,
      "byteOffset": 1800
    },
    {
      "name": "Icosphere.003_Icosphere.004-Mesh_0_positions",
      "componentType": 5126,
      "count": 136,
      "min": [
        0.4023599922657013,
        -0.4360319972038269,
        -1.4866600036621094
      ],
      "max": [
        0.760246992111206,
        -0.042980000376701355,
        -1.1188369989395142
      ],
      "type": "VEC3",
      "bufferView": 0,
      "byteOffset": 6912
    },
    {
      "name": "Icosphere.003_Icosphere.004-Mesh_0_normals",
      "componentType": 5126,
      "count": 136,
      "min": [
        -0.9010437726974487,
        -0.9572377800941467,
        -0.8055976033210754
      ],
      "max": [
        0.9268324971199036,
        0.8772984147071838,
        0.9962782263755798
      ],
      "type": "VEC3",
      "bufferView": 1,
      "byteOffset": 6912
    },
    {
      "name": "Icosphere.003_Icosphere.004-Mesh_0_indices",
      "componentType": 5123,
      "count": 174,
      "min": [
        0
      ],
      "max": [
        135
      ],
      "type": "SCALAR",
      "bufferView": 2,
      "byteOffset": 2148
    },
    {
      "name": "Icosphere.002_Icosphere.003-Mesh_0_positions",
      "componentType": 5126,
      "count": 136,
      "min": [
        1.005892038345337,
        0.2583880126476288,
        0.25811299681663513
      ],
      "max": [
        1.3803880214691162,
        0.5998679995536804,
        0.6677089929580688
      ],
      "type": "VEC3",
      "bufferView": 0,
      "byteOffset": 8544
    },
    {
      "name": "Icosphere.002_Icosphere.003-Mesh_0_normals",
      "componentType": 5126,
      "count": 136,
      "min": [
        -0.9831309914588928,
        -0.8653443455696106,
        -0.9722369313240051
      ],
      "max": [
        0.9879725575447083,
        0.9470153450965881,
        0.8349205255508423
      ],
      "type": "VEC3",
      "bufferView": 1,
      "byteOffset": 8544
    },
    {
      "name": "Icosphere.002_Icosphere.003-Mesh_0_indices",
      "componentType": 5123,
      "count": 174,
      "min": [
        0
      ],
      "max": [
        135
      ],
      "type": "SCALAR",
      "bufferView": 2,
      "byteOffset": 2496
    },
    {
      "name": "Icosphere.001_Icosphere.002-Mesh_0_positions",
      "componentType": 5126,
      "count": 122,
      "min": [
        -0.41746100783348083,
        0.8388199806213379,
        0.7805719971656799
      ],
      "max": [
        0.0164560005068779,
        1.180299997329712,
        1.1165900230407715
      ],
      "type": "VEC3",
      "bufferView": 0,
      "byteOffset": 10176
    },
    {
      "name": "Icosphere.001_Icosphere.002-Mesh_0_normals",
      "componentType": 5126,
      "count": 122,
      "min": [
        -0.9822438955307007,
        -0.803763747215271,
        -0.9341833591461182
      ],
      "max": [
        0.9822438955307007,
        0.947009265422821,
        0.9341833591461182
      ],
      "type": "VEC3",
      "bufferView": 1,
      "byteOffset": 10176
    },
    {
      "name": "Icosphere.001_Icosphere.002-Mesh_0_indices",
      "componentType": 5123,
      "count": 174,
      "min": [
        0
      ],
      "max": [
        121
      ],
      "type": "SCALAR",
      "bufferView": 2,
      "byteOffset": 2844
    },
    {
      "name": "Icosphere-Mesh_0_positions",
      "componentType": 5126,
      "count": 2804,
      "min": [
        -0.9907029867172241,
        -0.9985340237617493,
        -1.0182709693908691
      ],
      "max": [
        1.0118989944458008,
        1.0531350374221802,
        1.0023640394210815
      ],
      "type": "VEC3",
      "bufferView": 0,
      "byteOffset": 11640
    },
    {
      "name": "Icosphere-Mesh_0_normals",
      "componentType": 5126,
      "count": 2804,
      "min": [
        -0.9805364608764648,
        -0.9996380805969238,
        -0.9995865225791931
      ],
      "max": [
        0.9841647744178772,
        0.9527583122253418,
        1
      ],
      "type": "VEC3",
      "bufferView": 1,
      "byteOffset": 11640
    },
    {
      "name": "Icosphere-Mesh_0_indices",
      "componentType": 5123,
      "count": 2535,
      "min": [
        0
      ],
      "max": [
        2803
      ],
      "type": "SCALAR",
      "bufferView": 2,
      "byteOffset": 3192
    },
    {
      "name": "Icosphere-Mesh_1_positions",
      "componentType": 5126,
      "count": 2037,
      "min": [
        -1.0605440139770508,
        -1.0442179441452026,
        -1.0283039808273315
      ],
      "max": [
        1.0678809881210327,
        1.0546740293502808,
        1.0526310205459595
      ],
      "type": "VEC3",
      "bufferView": 0,
      "byteOffset": 45288
    },
    {
      "name": "Icosphere-Mesh_1_normals",
      "componentType": 5126,
      "count": 2037,
      "min": [
        -0.9959676861763,
        -0.981155514717102,
        -0.9732847213745117
      ],
      "max": [
        0.9962531328201294,
        0.9888841509819031,
        0.9901410341262817
      ],
      "type": "VEC3",
      "bufferView": 1,
      "byteOffset": 45288
    },
    {
      "name": "Icosphere-Mesh_1_indices",
      "componentType": 5123,
      "count": 2379,
      "min": [
        0
      ],
      "max": [
        2036
      ],
      "type": "SCALAR",
      "bufferView": 2,
      "byteOffset": 8264
    },
    {
      "name": "Icosphere-Mesh_2_positions",
      "componentType": 5126,
      "count": 311,
      "min": [
        -0.20731599628925323,
        0.3182249963283539,
        -0.39193201065063477
      ],
      "max": [
        1.3478519916534424,
        1.313330054283142,
        0.1563660055398941
      ],
      "type": "VEC3",
      "bufferView": 0,
      "byteOffset": 69732
    },
    {
      "name": "Icosphere-Mesh_2_normals",
      "componentType": 5126,
      "count": 311,
      "min": [
        -0.903427004814148,
        -0.9888995289802551,
        -0.9942651391029358
      ],
      "max": [
        0.9841719269752502,
        0.9951268434524536,
        0.9889819025993347
      ],
      "type": "VEC3",
      "bufferView": 1,
      "byteOffset": 69732
    },
    {
      "name": "Icosphere-Mesh_2_indices",
      "componentType": 5123,
      "count": 411,
      "min": [
        0
      ],
      "max": [
        310
      ],
      "type": "SCALAR",
      "bufferView": 2,
      "byteOffset": 13024
    },
    {
      "name": "Icosphere-Mesh_3_positions",
      "componentType": 5126,
      "count": 48,
      "min": [
        1.0067460536956787,
        0.1359809935092926,
        -0.14827799797058105
      ],
      "max": [
        1.309291958808899,
        0.4562259912490845,
        0.20094799995422363
      ],
      "type": "VEC3",
      "bufferView": 0,
      "byteOffset": 73464
    },
    {
      "name": "Icosphere-Mesh_3_normals",
      "componentType": 5126,
      "count": 48,
      "min": [
        -0.027100611478090286,
        -0.8307742476463318,
        -0.8491043448448181
      ],
      "max": [
        0.6911886930465698,
        0.9795221090316772,
        0.896704375743866
      ],
      "type": "VEC3",
      "bufferView": 1,
      "byteOffset": 73464
    },
    {
      "name": "Icosphere-Mesh_3_indices",
      "componentType": 5123,
      "count": 72,
      "min": [
        0
      ],
      "max": [
        47
      ],
      "type": "SCALAR",
      "bufferView": 2,
      "byteOffset": 13848
    },
    {
      "name": "Icosphere-Mesh_4_positions",
      "componentType": 5126,
      "count": 24,
      "min": [
        0.9772019982337952,
        0.12111499905586243,
        -0.16597199440002441
      ],
      "max": [
        1.08992600440979,
        0.4683839976787567,
        0.20873099565505981
      ],
      "type": "VEC3",
      "bufferView": 0,
      "byteOffset": 74040
    },
    {
      "name": "Icosphere-Mesh_4_normals",
      "componentType": 5126,
      "count": 24,
      "min": [
        0.28540027141571045,
        -0.8314920663833618,
        -0.8274094462394714
      ],
      "max": [
        0.5404948592185974,
        0.8992176055908203,
        0.9190008640289307
      ],
      "type": "VEC3",
      "bufferView": 1,
      "byteOffset": 74040
    },
    {
      "name": "Icosphere-Mesh_4_indices",
      "componentType": 5123,
      "count": 36,
      "min": [
        0
      ],
      "max": [
        23
      ],
      "type": "SCALAR",
      "bufferView": 2,
      "byteOffset": 13992
    }
  ],
  "asset": {
    "generator": "obj2gltf",
    "version": "2.0"
  },
  "buffers": [
    {
      "name": "earth",
      "byteLength": 162720,
      "uri": "data:application/octet-stream;base64,"
    }
  ],
  "bufferViews": [
    {
      "name": "bufferView_0",
      "buffer": 0,
      "byteLength": 74328,
      "byteOffset": 0,
      "byteStride": 12,
      "target": 34962
    },
    {
      "name": "bufferView_1",
      "buffer": 0,
      "byteLength": 74328,
      "byteOffset": 74328,
      "byteStride": 12,
      "target": 34962
    },
    {
      "name": "bufferView_2",
      "buffer": 0,
      "byteLength": 14064,
      "byteOffset": 148656,
      "target": 34963
    }
  ],
  "materials": [
    {
      "name": "Red",
      "pbrMetallicRoughness": {
        "baseColorFactor": [
          0.64,
          0.007281,
          0,
          1
        ],
        "metallicFactor": 0,
        "roughnessFactor": 0.903921569
      },
      "emissiveFactor": [
        0,
        0,
        0
      ],
      "alphaMode": "OPAQUE",
      "doubleSided": false
    },
    {
      "name": "White",
      "pbrMetallicRoughness": {
        "baseColorFactor": [
          0.64,
          0.64,
          0.64,
          1
        ],
        "metallicFactor": 0,
        "roughnessFactor": 0.903921569
      },
      "emissiveFactor": [
        0,
        0,
        0
      ],
      "alphaMode": "OPAQUE",
      "doubleSided": false
    },
    {
      "name": "LightBrown",
      "pbrMetallicRoughness": {
        "baseColorFactor": [
          0.196955,
          0.083055,
          0.047588,
          1
        ],
        "metallicFactor": 0,
        "roughnessFactor": 0.903921569
      },
      "emissiveFactor": [
        0,
        0,
        0
      ],
      "alphaMode": "OPAQUE",
      "doubleSided": false
    },
    {
      "name": "Blue",
      "pbrMetallicRoughness": {
        "baseColorFactor": [
          0.078411,
          0.303421,
          0.37376,
          1
        ],
        "metallicFactor": 0,
        "roughnessFactor": 0.903921569
      },
      "emissiveFactor": [
        0,
        0,
        0
      ],
      "alphaMode": "OPAQUE",
      "doubleSided": false
    },
    {
      "name": "Green",
      "pbrMetallicRoughness": {
        "baseColorFactor": [
          0.023353,
          0.224807,
          0.012758,
          1
        ],
        "metallicFactor": 0,
        "roughnessFactor": 0.903921569
      },
      "emissiveFactor": [
        0,
        0,
        0
      ],
      "alphaMode": "OPAQUE",
      "doubleSided": false
    },
    {
      "name": "Snow",
      "pbrMetallicRoughness": {
        "baseColorFactor": [
          0.510616,
          0.510616,
          0.510616,
          1
        ],
        "metallicFactor": 0,
        "roughnessFactor": 0.903921569
      },
      "emissiveFactor": [
        0,
        0,
        0
      ],
      "alphaMode": "OPAQUE",
      "doubleSided": false
    },
    {
      "name": "Brown",
      "pbrMetallicRoughness": {
        "baseColorFactor": [
          0.066825,
          0.027932,
          0.012997,
          1
        ],
        "metallicFactor": 0,
        "roughnessFactor": 0.903921569
      },
      "emissiveFactor": [
        0,
        0,
        0
      ],
      "alphaMode": "OPAQUE",
      "doubleSided": false
    },
    {
      "name": "DarkGreen",
      "pbrMetallicRoughness": {
        "baseColorFactor": [
          0.015506,
          0.129623,
          0.009829,
          1
        ],
        "metallicFactor": 0,
        "roughnessFactor": 0.903921569
      },
      "emissiveFactor": [
        0,
        0,
        0
      ],
      "alphaMode": "OPAQUE",
      "doubleSided": false
    }
  ],
  "meshes": [
    {
      "name": "Cube.001_Cube.004-Mesh",
      "primitives": [
        {
          "attributes": {
            "POSITION": 0,
            "NORMAL": 1
          },
          "indices": 2,
          "material": 0,
          "mode": 4
        },
        {
          "attributes": {
            "POSITION": 3,
            "NORMAL": 4
          },
          "indices": 5,
          "material": 1,
          "mode": 4
        }
      ]
    },
    {
      "name": "Cube_Cube.003-Mesh",
      "primitives": [
        {
          "attributes": {
            "POSITION": 6,
            "NORMAL": 7
          },
          "indices": 8,
          "material": 2,
          "mode": 4
        }
      ]
    },
    {
      "name": "Icosphere.004_Icosphere.005-Mesh",
      "primitives": [
        {
          "attributes": {
            "POSITION": 9,
            "NORMAL": 10
          },
          "indices": 11,
          "material": 1,
          "mode": 4
        }
      ]
    },
    {
      "name": "Icosphere.003_Icosphere.004-Mesh",
      "primitives": [
        {
          "attributes": {
            "POSITION": 12,
            "NORMAL": 13
          },
          "indices": 14,
          "material": 1,
          "mode": 4
        }
      ]
    },
    {
      "name": "Icosphere.002_Icosphere.003-Mesh",
      "primitives": [
        {
          "attributes": {
            "POSITION": 15,
            "NORMAL": 16
          },
          "indices": 17,
          "material": 1,
          "mode": 4
        }
      ]
    },
    {
      "name": "Icosphere.001_Icosphere.002-Mesh",
      "primitives": [
        {
          "attributes": {
            "POSITION": 18,
            "NORMAL": 19
          },
          "indices": 20,
          "material": 1,
          "mode": 4
        }
      ]
    },
    {
      "name": "Icosphere-Mesh",
      "primitives": [
        {
          "attributes": {
            "POSITION": 21,
            "NORMAL": 22
          },
          "indices": 23,
          "material": 3,
          "mode": 4
        },
        {
          "attributes": {
            "POSITION": 24,
            "NORMAL": 25
          },
          "indices": 26,
          "material": 4,
          "mode": 4
        },
        {
          "attributes": {
            "POSITION": 27,
            "NORMAL": 28
          },
          "indices": 29,
          "material": 5,
          "mode": 4
        },
        {
          "attributes": {
            "POSITION": 30,
            "NORMAL": 31
          },
          "indices": 32,
          "material": 6,
          "mode": 4
        },
        {
          "attributes": {
            "POSITION": 33,
            "NORMAL": 34
          },
          "indices": 35,
          "material": 7,
          "mode": 4
        }
      ]
    }
  ],
  "nodes": [
    {
      "name": "Cube.001_Cube.004",
      "mesh": 0
    },
    {
      "name": "Cube_Cube.003",
      "mesh": 1
    },
    {
      "name": "Icosphere.004_Icosphere.005",
      "mesh": 2
    },
    {
      "name": "Icosphere.003_Icosphere.004",
      "mesh": 3
    },
    {
      "name": "Icosphere.002_Icosphere.003",
      "mesh": 4
    },
    {
      "name": "Icosphere.001_Icosphere.002",
      "mesh": 5
    },
    {
      "name": "Icosphere",
      "mesh": 6
    }
  ],
  "scene": 0,
  "scenes": [
    {
      "nodes": [
        0,
        1,
        2,
        3,
        4,
        5,
        6
      ]
    }
  ]
}
